<svg width="1027" height="1120" viewBox="0 0 1027 1120" fill="none" xmlns="http://www.w3.org/2000/svg">
<g filter="url(#filter0_d_108_1327)">
<path opacity="0.5" d="M322.635 37.6942C202.697 138.217 184.111 328.298 102.881 468.527C74.6041 517.322 38.0667 560.992 19.0036 615.123C-24.7619 739.026 35.472 879.572 116.093 977.981C154.536 1024.93 199.44 1067.94 253.77 1087.72C295.55 1102.94 340.348 1103.57 384.325 1103.97L1154.79 1111.9C1240.81 1112.77 1336.39 1109.62 1398.24 1043.21C1440.87 997.478 1458.18 930.692 1472.88 866.944C1490.93 788.613 1507.3 703.546 1479.2 628.94C1447.11 543.582 1365.96 495.21 1315.55 421.555C1233.74 302.223 1235.62 121.731 1131.44 26.4664C1082.8 -17.9959 1018.62 -35.4321 956.083 -44.1502C838.184 -60.6089 726.506 -29.5408 610.725 -33.8734C511.756 -37.572 404.739 -31.1259 322.635 37.6942Z" fill="#E7ECFF"/>
<path opacity="0.24" d="M564.078 933.613C517.629 938.283 469.755 943.419 428.881 966.264C423.41 969.328 417.856 972.942 414.837 978.458C408.78 989.553 415.655 1004.18 426.324 1010.86C436.993 1017.53 450.156 1018.29 462.712 1018.84C686.279 1028.59 910.181 1024.76 1133.94 1020.96C1198.92 1019.86 1264.92 1018.59 1327.19 999.718C1338.39 996.337 1350.69 991.265 1354.9 980.212C1360.42 965.757 1347.84 949.737 1333.17 945.236C1318.5 940.735 1302.84 944.095 1287.66 946.06C1234.97 952.886 1181.81 942.446 1129.35 934.099C1026.64 917.784 920.075 904.512 816.047 902.039C780.581 901.215 750.293 913.515 715.582 918.376C665.465 925.434 614.467 928.541 564.078 933.613Z" fill="#505F98"/>
<path d="M381.369 500.326L497.198 264.408L566.185 298.19L450.355 534.108L381.369 500.326Z" fill="white"/>
<path d="M408.214 493.055L422.327 464.22L468.791 486.903L454.678 515.738L408.214 493.055Z" fill="#505F98"/>
<path d="M408.214 493.055L422.327 464.22L468.791 486.903L454.678 515.738L408.214 493.055Z" fill="url(#paint0_linear_108_1327)"/>
<path d="M422.329 464.445L436.443 435.61L482.907 458.293L468.794 487.128L422.329 464.445Z" fill="#505F98"/>
<path d="M422.329 464.445L436.443 435.61L482.907 458.293L468.794 487.128L422.329 464.445Z" fill="url(#paint1_linear_108_1327)"/>
<path d="M436.426 435.826L450.54 406.991L497.004 429.674L482.89 458.509L436.426 435.826Z" fill="#505F98"/>
<path d="M436.426 435.826L450.54 406.991L497.004 429.674L482.89 458.509L436.426 435.826Z" fill="url(#paint2_linear_108_1327)"/>
<path d="M450.563 407.237L464.676 378.402L511.14 401.085L497.027 429.92L450.563 407.237Z" fill="#505F98"/>
<path d="M450.563 407.237L464.676 378.402L511.14 401.085L497.027 429.92L450.563 407.237Z" fill="url(#paint3_linear_108_1327)"/>
<path d="M464.668 378.599L478.782 349.764L525.246 372.447L511.133 401.282L464.668 378.599Z" fill="#505F98"/>
<path d="M478.784 350.01L492.897 321.175L539.362 343.858L525.248 372.693L478.784 350.01Z" fill="#505F98"/>
<path d="M492.881 321.391L506.994 292.556L553.458 315.239L539.345 344.074L492.881 321.391Z" fill="#505F98"/>
<path d="M477.196 353.598L491.309 324.763L537.774 347.446L523.66 376.281L477.196 353.598Z" fill="url(#paint4_linear_108_1327)"/>
<path d="M491.321 324.97L505.434 296.135L551.898 318.817L537.785 347.652L491.321 324.97Z" fill="url(#paint5_linear_108_1327)"/>
<rect x="791.837" y="818" width="98.0679" height="82" fill="#505F98"/>
<rect x="791.837" y="818" width="98.0679" height="82" fill="url(#paint6_linear_108_1327)"/>
<rect x="583.693" y="476" width="518.359" height="355" rx="9.37" fill="#505F98"/>
<path opacity="0.65" d="M1085.04 505.438V799.562C1085.06 804.443 1083.13 809.129 1079.69 812.588C1076.25 816.047 1071.58 817.994 1066.7 818H615.039C610.165 817.989 605.494 816.04 602.056 812.582C598.617 809.125 596.691 804.441 596.702 799.562V505.438C596.691 500.559 598.617 495.875 602.056 492.418C605.494 488.96 610.165 487.011 615.039 487H1066.7C1071.58 487.006 1076.25 488.953 1079.69 492.412C1083.13 495.871 1085.06 500.557 1085.04 505.438Z" fill="url(#paint7_linear_108_1327)"/>
<rect x="746.806" y="890" width="206.143" height="21" fill="#505F98"/>
<rect x="791.837" y="878" width="98.0679" height="12" fill="url(#paint8_linear_108_1327)"/>
<path fill-rule="evenodd" clip-rule="evenodd" d="M946.945 304.241V324.715L934.235 324.819C932.999 334.346 929.375 343.41 923.697 351.181L934.552 362.351L919.672 376.6L908.986 365.578C902.397 370.062 894.962 373.17 887.13 374.714V388H866.559V375.029C857.774 373.76 849.402 370.497 842.089 365.494L833.153 374.316L818.589 359.647L827.462 350.993C821.876 343.219 818.313 334.191 817.092 324.715H802.845V304.241H817.598C819.427 296.093 823.024 288.441 828.136 281.819L819.896 273.332L834.776 259.082L843.206 267.82C850.176 263.214 858.1 260.228 866.39 259.082V245H886.961V259.396C895.33 261.055 903.239 264.493 910.145 269.476L920.683 259.166L935.163 273.709L924.625 284.187C928.756 290.267 931.689 297.073 933.266 304.241H946.945ZM840.803 317.15C840.78 336.211 856.303 351.682 875.474 351.705C884.686 351.733 893.529 348.113 900.051 341.644C906.572 335.176 910.235 326.392 910.229 317.233C910.253 298.172 894.73 282.701 875.559 282.678C856.387 282.655 840.827 298.088 840.803 317.15Z" fill="#505F98"/>
<path fill-rule="evenodd" clip-rule="evenodd" d="M1023 338.354L1022.08 350.396L1014.57 349.938C1013.44 355.475 1010.94 360.641 1007.28 364.958L1013.15 372.021L1003.8 379.729L998.039 372.792C993.984 375.13 989.498 376.625 984.85 377.188L984.245 385L972.204 384.104L972.788 376.479C967.703 375.344 962.947 373.056 958.89 369.792L953.256 374.583L945.388 365.396L950.96 360.688C948.032 355.876 946.346 350.414 946.056 344.792L937.938 344.167L938.836 332.146L947.454 332.792C948.878 328.085 951.305 323.743 954.57 320.062L950.125 314.708L959.474 307L964.003 312.5C968.274 310.095 973.029 308.672 977.922 308.333L978.548 300L990.589 300.896L989.942 309.375C994.749 310.714 999.207 313.081 1003.01 316.312L1009.62 310.708L1017.47 319.896L1010.79 325.583C1012.96 329.339 1014.37 333.477 1014.96 337.771L1023 338.354ZM960.3 341.243C959.445 352.436 967.837 362.203 979.049 363.062C984.443 363.487 989.784 361.747 993.889 358.228C997.994 354.708 1000.52 349.7 1000.92 344.312C1001.76 333.119 993.358 323.361 982.146 322.514C970.934 321.666 961.155 330.05 960.3 341.243Z" fill="#505F98"/>
<path d="M1085.04 505.513V512H596.702V505.513C596.691 500.614 598.617 495.912 602.056 492.44C605.495 488.968 610.166 487.011 615.041 487H1066.7C1071.58 487.006 1076.25 488.961 1079.69 492.434C1083.13 495.907 1085.06 500.613 1085.04 505.513Z" fill="url(#paint9_linear_108_1327)"/>
<rect x="606.709" y="544" width="47.0326" height="227" fill="url(#paint10_linear_108_1327)"/>
<rect x="724.791" y="560" width="221.153" height="209" fill="url(#paint11_linear_108_1327)"/>
<rect x="775.826" y="658" width="7.00485" height="9" fill="url(#paint12_linear_108_1327)"/>
<rect x="775.826" y="616" width="7.00485" height="9" fill="url(#paint13_linear_108_1327)"/>
<rect x="680.76" y="658" width="7.00485" height="9" fill="url(#paint14_linear_108_1327)"/>
<rect x="680.76" y="616" width="7.00485" height="9" fill="url(#paint15_linear_108_1327)"/>
<rect x="775.826" y="571" width="7.00485" height="9" fill="url(#paint16_linear_108_1327)"/>
<rect x="681.761" y="571" width="7.00485" height="9" fill="url(#paint17_linear_108_1327)"/>
<rect x="729.794" y="571" width="7.00485" height="9" fill="url(#paint18_linear_108_1327)"/>
<rect x="729.794" y="658" width="7.00485" height="9" fill="url(#paint19_linear_108_1327)"/>
<path fill-rule="evenodd" clip-rule="evenodd" d="M693.769 656H771.823V583H693.769V656ZM763.961 648.282H701.631V590.656H763.961V648.282Z" fill="#505F98"/>
<path fill-rule="evenodd" clip-rule="evenodd" d="M693.769 656H771.823V583H693.769V656ZM763.961 648.282H701.631V590.656H763.961V648.282Z" fill="url(#paint20_linear_108_1327)"/>
<rect x="977.966" y="524" width="100.069" height="100" fill="url(#paint21_linear_108_1327)"/>
<rect x="977.966" y="634" width="100.069" height="100" fill="url(#paint22_linear_108_1327)"/>
<rect opacity="0.65" x="606.709" y="543" width="47.0326" height="13" fill="url(#paint23_linear_108_1327)"/>
<path d="M403.673 474.827L608.801 310.293L656.914 370.118L451.785 534.652L403.673 474.827Z" fill="white"/>
<path d="M432.396 479.455L457.464 459.235L490.046 499.522L464.979 519.742L432.396 479.455Z" fill="#505F98"/>
<path d="M432.396 479.455L457.464 459.235L490.046 499.522L464.979 519.742L432.396 479.455Z" fill="url(#paint24_linear_108_1327)"/>
<path d="M456.014 459.689L481.047 439.56L513.481 479.79L488.449 499.919L456.014 459.689Z" fill="#505F98"/>
<path d="M456.014 459.689L481.047 439.56L513.481 479.79L488.449 499.919L456.014 459.689Z" fill="url(#paint25_linear_108_1327)"/>
<path d="M480.958 439.761L505.99 419.633L538.425 459.863L513.393 479.991L480.958 439.761Z" fill="#505F98"/>
<path d="M480.958 439.761L505.99 419.633L538.425 459.863L513.393 479.991L480.958 439.761Z" fill="url(#paint26_linear_108_1327)"/>
<path d="M505.886 419.847L530.918 399.718L563.353 439.948L538.321 460.077L505.886 419.847Z" fill="#505F98"/>
<path d="M505.886 419.847L530.918 399.718L563.353 439.948L538.321 460.077L505.886 419.847Z" fill="url(#paint27_linear_108_1327)"/>
<path d="M532.006 399.389L557.073 379.169L589.656 419.456L564.588 439.676L532.006 399.389Z" fill="#505F98"/>
<path d="M557.086 378.99L582.154 358.77L614.736 399.057L589.668 419.277L557.086 378.99Z" fill="#505F98"/>
<path d="M580.693 360.051L605.726 339.923L638.161 380.153L613.128 400.281L580.693 360.051Z" fill="#505F98"/>
<path d="M610.712 403.218L589.613 420L557.675 379.782L578.774 363L610.712 403.218Z" fill="url(#paint28_linear_108_1327)"/>
<path d="M577.736 362.648L602.768 342.519L635.203 382.749L610.171 402.878L577.736 362.648Z" fill="url(#paint29_linear_108_1327)"/>
<path d="M526.653 484.15V607H505.639V484.15C505.639 479.61 508.457 475.57 512.657 474.089V461.825C512.657 459.712 514.333 458 516.4 458C518.468 458 520.144 459.712 520.144 461.825V474.297C524.063 475.935 526.632 479.823 526.653 484.15Z" fill="#505F98"/>
<path d="M526.653 484.15V607H505.639V484.15C505.639 479.61 508.457 475.57 512.657 474.089V461.825C512.657 459.712 514.333 458 516.4 458C518.468 458 520.144 459.712 520.144 461.825V474.297C524.063 475.935 526.632 479.823 526.653 484.15Z" fill="url(#paint30_linear_108_1327)"/>
<rect x="492.63" y="562" width="50.0346" height="9" rx="2.245" fill="#505F98"/>
<path d="M517.336 644C508.763 644 501.636 631.185 501.636 622.634V566H532.658V622.634C532.658 631.185 525.887 644 517.336 644Z" fill="#505F98"/>
<rect x="492.63" y="562" width="50.0346" height="9" rx="2.245" fill="url(#paint31_linear_108_1327)"/>
<path d="M517.336 644C508.763 644 501.636 631.366 501.636 622.937V571H532.658V622.937C532.658 631.366 525.887 644 517.336 644Z" fill="url(#paint32_linear_108_1327)"/>
<path d="M717.428 704C716.754 700.436 716.329 695.39 717.623 695.043C720.351 694.275 717.428 704 717.428 704Z" fill="#28353D"/>
<path d="M860.687 899.507C860.201 912.102 850.439 958.388 850.122 971.004C850.122 975.202 851.242 981.647 849.889 985.698C847.1 994.284 837.211 993.108 835.922 988.049L835.436 985.53C830.85 961.012 838.225 933.198 835.436 901.186C833.766 881.643 825.99 843.963 820.898 843.711C818.214 843.711 756.957 972.851 751.632 980.807C749.011 984.817 741.637 984.187 738.066 987.42C734.495 990.652 767.818 889.515 781.785 836.07C785.043 825.039 787.167 813.709 788.124 802.252C788.505 795.64 786.37 793.415 792.477 791.463C796.703 790.119 802.557 790.497 807.078 790.182C812.002 789.804 857.792 789.72 857.792 792.953C857.348 810.502 861.87 870.412 860.687 899.507Z" fill="#606161"/>
<path d="M860.687 899.507C860.201 912.102 850.439 958.388 850.122 971.004C850.122 975.202 851.242 981.647 849.889 985.698C847.1 994.284 837.211 993.108 835.922 988.049L835.436 985.53C830.85 961.012 838.225 933.198 835.436 901.186C833.766 881.643 825.99 843.963 820.898 843.711C818.214 843.711 756.957 972.851 751.632 980.807C749.011 984.817 741.637 984.187 738.066 987.42C734.495 990.652 767.818 889.515 781.785 836.07C785.043 825.039 787.167 813.709 788.124 802.252C788.505 795.64 786.37 793.415 792.477 791.463C796.703 790.119 802.557 790.497 807.078 790.182C812.002 789.804 857.792 789.72 857.792 792.953C857.348 810.502 861.87 870.412 860.687 899.507Z" fill="url(#paint33_linear_108_1327)"/>
<path d="M806.614 631.148C806.229 627.163 804.346 625 802.506 625C800.667 625 799.533 627.12 799.918 631.148C800.005 634.122 802.249 636.597 805.223 637C807.085 637 807.02 635.134 806.614 631.148Z" fill="#FFCD9C"/>
<path d="M839.008 631.159C839.258 627.166 841.095 625 842.994 625C844.893 625 846.124 627.124 845.832 631.159C845.805 634.173 843.56 636.687 840.615 637C838.736 637 838.715 635.152 839.008 631.159Z" fill="#FFCD9C"/>
<path d="M842.732 648.672C842.473 650.777 833.558 660 823.413 660C813.267 660 804.892 651.577 803.122 648.208C801.352 644.839 808.475 601.505 812.598 597.884C816.721 594.262 833.429 596.641 834.832 598.558C838.199 603.085 843.833 640.27 842.732 648.672Z" fill="#F4AD7D"/>
<path d="M838.538 615.977C837.159 616.639 831.743 602.842 830.607 600.525C829.472 598.208 829.654 595.829 831.033 595.167C832.413 594.505 834.441 595.871 835.577 598.167C836.713 600.463 839.897 615.336 838.538 615.977Z" fill="#FFCD9C"/>
<path d="M808.168 614.987C806.737 614.501 810.525 600.179 811.351 597.703C812.177 595.228 814.031 593.599 815.381 594.086C816.731 594.573 817.295 596.984 816.469 599.481C815.643 601.977 809.518 615.474 808.168 614.987Z" fill="#FFCD9C"/>
<path d="M813.845 647H835.608L838.87 667.622C827.014 674.005 820.101 673.301 810.85 666.214L813.845 647Z" fill="#F4AD7D"/>
<path d="M822.859 651.13C822.859 650.75 823.764 650.43 824.86 650.43C825.956 650.43 826.861 650.75 826.861 651.13C826.861 651.51 825.98 651.57 824.86 651.57C823.74 651.57 822.859 651.53 822.859 651.13Z" fill="#F4AD7D"/>
<path d="M843.892 641.808C844.716 636.894 846.06 601.708 842.764 597.051C839.469 592.394 819.741 589.381 816.749 590.108C810.05 591.731 811.221 596.517 811.221 596.517C809.23 596.547 807.28 597.084 805.563 598.076C803.265 599.615 798.43 621.79 802.289 638.56C804.023 646.102 810.852 652.66 822.646 652.981C837.171 653.365 842.895 647.896 843.892 641.808Z" fill="#606161"/>
<path d="M816.831 591.762C818.39 590.448 820.41 589.828 822.43 590.041C828.563 590.008 834.647 591.14 840.365 593.376C843.535 594.488 846.414 596.311 848.785 598.708C851.172 601.173 852.271 604.627 851.753 608.034C850.7 613.047 845.438 616.148 843.712 620.97C842.322 624.837 843.312 628.575 843.354 632.463C843.382 635.606 843.156 638.746 842.68 641.852C841.712 647.906 836.176 653.344 821.967 652.983C810.516 652.664 803.885 646.143 802.201 638.644C799.921 626.198 800.519 613.389 803.948 601.215C810.12 602.648 816.434 603.361 822.767 603.339C829.482 603.395 836.178 602.611 842.701 601.002C843.817 607.503 843.796 620.524 843.438 630.253" fill="#606161"/>
<path d="M781.702 663.954C778.268 664.241 774.96 665.384 772.077 667.28C767.139 671.171 766.764 678.43 766.848 684.748C766.678 693.501 767.285 702.252 768.66 710.897C770.139 718.826 772.827 726.441 775.035 734.202C778.516 746.831 780.344 759.862 780.473 772.966C780.473 780.162 780.348 788.07 784.827 793.697C789.723 799.806 798.39 800.998 806.182 801.438C817.245 802.086 828.349 802.17 839.412 801.709C846.829 801.375 854.725 800.643 860.6 796.082C865.288 792.442 876.267 669.288 867.746 666.171C859.225 663.054 850.058 662.259 841.016 661.506C820.745 659.791 801.661 658.431 781.702 663.954Z" fill="#505F98"/>
<path d="M845.521 919.291C844.435 933.255 841.843 984 841.843 984L835.238 983.77C830.702 959.39 837.997 931.732 835.238 899.899C833.586 880.465 825.895 842.996 820.857 842.746C822.362 830.221 830.827 832.1 830.827 832.1C836.984 841.294 842.294 851.026 846.692 861.178C851.729 874.37 846.629 905.263 845.521 919.291Z" fill="url(#paint34_linear_108_1327)"/>
<path d="M721.164 985.024C720.133 985.786 719.35 986.83 718.913 988.025C718.678 989.009 718.773 990.04 719.184 990.965C720.35 993.326 722.56 995.019 725.168 995.55C727.744 996.04 730.383 996.131 732.987 995.818L741.328 995.262C743.45 995.212 745.555 994.873 747.583 994.255C749.614 993.627 751.289 992.198 752.212 990.308C752.704 988.916 752.895 987.438 752.775 985.969C752.775 979.164 750.357 973.634 742.808 975.299C734.902 976.765 727.474 980.102 721.164 985.024Z" fill="#505F98"/>
<path d="M859.703 988.063C860.65 988.759 861.369 989.709 861.77 990.797C861.984 991.682 861.9 992.611 861.53 993.446C860.468 995.584 858.438 997.114 856.047 997.579C853.69 998.035 851.273 998.121 848.888 997.834L841.316 997.325C839.39 997.284 837.478 996.985 835.636 996.435C833.779 995.864 832.25 994.566 831.415 992.853C830.967 991.595 830.789 990.26 830.893 988.932C830.893 982.785 833.069 977.72 840.01 979.288C847.206 980.619 853.964 983.63 859.703 988.063Z" fill="#505F98"/>
<path d="M868.891 666C868.891 666 901.606 685.163 911.432 709.389C921.257 733.614 879.252 792 879.252 792L870.263 782.814C870.263 782.814 892.188 738.759 888.799 727.74C885.409 716.721 872.13 706.452 872.13 706.452L868.891 666Z" fill="#505F98"/>
<path d="M775.826 703.859C775.826 703.859 730.338 724.24 711.853 714.238C693.368 704.237 712.398 654 712.398 654L724.777 658.202C724.777 658.202 714.433 683.815 726.267 687.618C738.101 691.421 773.56 666.438 773.56 666.438L775.826 703.859Z" fill="#505F98"/>
<path d="M861.466 790.976C860.158 791.826 859.097 792.968 858.381 794.297C857.952 795.425 857.797 796.629 857.928 797.819C857.849 800.709 859.163 803.479 861.51 805.367C863.158 806.25 865.005 806.76 866.903 806.857C868.066 807.048 869.256 807.048 870.419 806.857C871.606 806.646 872.597 805.888 873.051 804.844C873.206 804.183 873.271 803.507 873.245 802.831C873.396 799.51 875.899 796.793 877.97 794.076C878.47 793.551 878.793 792.9 878.897 792.204C878.885 791.434 878.597 790.69 878.078 790.091C876.675 788.199 873.202 784.717 870.419 785.018C867.636 785.32 863.624 789.326 861.466 790.976Z" fill="#F4AD7D"/>
<path d="M732.585 646.435C733.178 645.611 733.582 644.679 733.772 643.698C733.923 642.683 733.386 641.687 732.431 641.211C730.915 640.647 729.114 642.13 727.62 641.504C727.114 641.235 726.69 640.846 726.389 640.375C724.625 637.945 723.613 635.093 723.467 632.143C723.553 630.571 723.405 628.995 723.028 627.463C722.583 625.886 721 624.849 719.293 625.018C717.886 625.331 717.095 626.689 716.217 627.776C715.338 628.863 713.58 630.158 712.437 631.516C710.487 634.307 709.37 637.55 709.208 640.898C708.592 645.077 708.197 649.861 711.273 652.87C713.646 655.189 720.874 657.927 724.192 656.694C727.861 655.315 730.74 649.444 732.585 646.435Z" fill="#F4AD7D"/>
</g>
<defs>
<filter id="filter0_d_108_1327" x="0.291748" y="-49" width="1498.03" height="1169" filterUnits="userSpaceOnUse" color-interpolation-filters="sRGB">
<feFlood flood-opacity="0" result="BackgroundImageFix"/>
<feColorMatrix in="SourceAlpha" type="matrix" values="0 0 0 0 0 0 0 0 0 0 0 0 0 0 0 0 0 0 127 0" result="hardAlpha"/>
<feOffset dy="4"/>
<feGaussianBlur stdDeviation="2"/>
<feComposite in2="hardAlpha" operator="out"/>
<feColorMatrix type="matrix" values="0 0 0 0 0 0 0 0 0 0 0 0 0 0 0 0 0 0 0.25 0"/>
<feBlend mode="normal" in2="BackgroundImageFix" result="effect1_dropShadow_108_1327"/>
<feBlend mode="normal" in="SourceGraphic" in2="effect1_dropShadow_108_1327" result="shape"/>
</filter>
<linearGradient id="paint0_linear_108_1327" x1="532.402" y1="560.166" x2="597.156" y2="431.6" gradientUnits="userSpaceOnUse">
<stop stop-color="#010101" stop-opacity="0.01"/>
<stop offset="0.95" stop-color="#010101"/>
</linearGradient>
<linearGradient id="paint1_linear_108_1327" x1="587.563" y1="556.365" x2="680.417" y2="374.775" gradientUnits="userSpaceOnUse">
<stop stop-color="#010101" stop-opacity="0.01"/>
<stop offset="0.95" stop-color="#010101"/>
</linearGradient>
<linearGradient id="paint2_linear_108_1327" x1="707.545" y1="565.092" x2="844.899" y2="254.948" gradientUnits="userSpaceOnUse">
<stop stop-color="#010101" stop-opacity="0.01"/>
<stop offset="0.95" stop-color="#010101"/>
</linearGradient>
<linearGradient id="paint3_linear_108_1327" x1="835.379" y1="581.583" x2="1040.31" y2="134.179" gradientUnits="userSpaceOnUse">
<stop stop-color="#010101" stop-opacity="0.01"/>
<stop offset="0.36" stop-color="#010101" stop-opacity="0.36"/>
<stop offset="0.95" stop-color="#010101"/>
</linearGradient>
<linearGradient id="paint4_linear_108_1327" x1="686.726" y1="476.564" x2="803.886" y2="234.969" gradientUnits="userSpaceOnUse">
<stop stop-color="white" stop-opacity="0.01"/>
<stop offset="0.07" stop-color="white" stop-opacity="0.22"/>
<stop offset="0.16" stop-color="white" stop-opacity="0.45"/>
<stop offset="0.25" stop-color="white" stop-opacity="0.65"/>
<stop offset="0.33" stop-color="white" stop-opacity="0.8"/>
<stop offset="0.4" stop-color="white" stop-opacity="0.91"/>
<stop offset="0.46" stop-color="white" stop-opacity="0.98"/>
<stop offset="0.51" stop-color="white"/>
</linearGradient>
<linearGradient id="paint5_linear_108_1327" x1="608.65" y1="423.444" x2="672.846" y2="287.555" gradientUnits="userSpaceOnUse">
<stop stop-color="white" stop-opacity="0.01"/>
<stop offset="0.07" stop-color="white" stop-opacity="0.22"/>
<stop offset="0.16" stop-color="white" stop-opacity="0.45"/>
<stop offset="0.25" stop-color="white" stop-opacity="0.65"/>
<stop offset="0.33" stop-color="white" stop-opacity="0.8"/>
<stop offset="0.4" stop-color="white" stop-opacity="0.91"/>
<stop offset="0.46" stop-color="white" stop-opacity="0.98"/>
<stop offset="0.51" stop-color="white"/>
</linearGradient>
<linearGradient id="paint6_linear_108_1327" x1="913.972" y1="886.322" x2="924.393" y2="759.584" gradientUnits="userSpaceOnUse">
<stop stop-color="#010101" stop-opacity="0.01"/>
<stop offset="0.95" stop-color="#010101"/>
</linearGradient>
<linearGradient id="paint7_linear_108_1327" x1="512.259" y1="423.517" x2="509.544" y2="873.071" gradientUnits="userSpaceOnUse">
<stop stop-color="white" stop-opacity="0.01"/>
<stop offset="0.07" stop-color="white" stop-opacity="0.22"/>
<stop offset="0.16" stop-color="white" stop-opacity="0.45"/>
<stop offset="0.25" stop-color="white" stop-opacity="0.65"/>
<stop offset="0.33" stop-color="white" stop-opacity="0.8"/>
<stop offset="0.4" stop-color="white" stop-opacity="0.91"/>
<stop offset="0.46" stop-color="white" stop-opacity="0.98"/>
<stop offset="0.51" stop-color="white"/>
</linearGradient>
<linearGradient id="paint8_linear_108_1327" x1="258.605" y1="861.073" x2="258.705" y2="1003.31" gradientUnits="userSpaceOnUse">
<stop stop-color="#010101" stop-opacity="0.01"/>
<stop offset="0.95" stop-color="#010101"/>
</linearGradient>
<linearGradient id="paint9_linear_108_1327" x1="1411.02" y1="606.966" x2="1445.2" y2="199.855" gradientUnits="userSpaceOnUse">
<stop stop-color="white" stop-opacity="0.01"/>
<stop offset="0.07" stop-color="white" stop-opacity="0.22"/>
<stop offset="0.16" stop-color="white" stop-opacity="0.45"/>
<stop offset="0.25" stop-color="white" stop-opacity="0.65"/>
<stop offset="0.33" stop-color="white" stop-opacity="0.8"/>
<stop offset="0.4" stop-color="white" stop-opacity="0.91"/>
<stop offset="0.46" stop-color="white" stop-opacity="0.98"/>
<stop offset="0.51" stop-color="white"/>
</linearGradient>
<linearGradient id="paint10_linear_108_1327" x1="584.138" y1="496.87" x2="722.145" y2="865.142" gradientUnits="userSpaceOnUse">
<stop stop-color="white" stop-opacity="0.01"/>
<stop offset="0.07" stop-color="white" stop-opacity="0.22"/>
<stop offset="0.16" stop-color="white" stop-opacity="0.45"/>
<stop offset="0.25" stop-color="white" stop-opacity="0.65"/>
<stop offset="0.33" stop-color="white" stop-opacity="0.8"/>
<stop offset="0.4" stop-color="white" stop-opacity="0.91"/>
<stop offset="0.46" stop-color="white" stop-opacity="0.98"/>
<stop offset="0.51" stop-color="white"/>
</linearGradient>
<linearGradient id="paint11_linear_108_1327" x1="687.668" y1="519.99" x2="684.343" y2="802.698" gradientUnits="userSpaceOnUse">
<stop stop-color="white" stop-opacity="0.01"/>
<stop offset="0.07" stop-color="white" stop-opacity="0.22"/>
<stop offset="0.16" stop-color="white" stop-opacity="0.45"/>
<stop offset="0.25" stop-color="white" stop-opacity="0.65"/>
<stop offset="0.33" stop-color="white" stop-opacity="0.8"/>
<stop offset="0.4" stop-color="white" stop-opacity="0.91"/>
<stop offset="0.46" stop-color="white" stop-opacity="0.98"/>
<stop offset="0.51" stop-color="white"/>
</linearGradient>
<linearGradient id="paint12_linear_108_1327" x1="1003.5" y1="711.704" x2="1022.69" y2="133.785" gradientUnits="userSpaceOnUse">
<stop stop-color="#010101" stop-opacity="0.01"/>
<stop offset="0.95" stop-color="#010101"/>
</linearGradient>
<linearGradient id="paint13_linear_108_1327" x1="1002.65" y1="712.045" x2="1021.84" y2="134.125" gradientUnits="userSpaceOnUse">
<stop stop-color="#010101" stop-opacity="0.01"/>
<stop offset="0.95" stop-color="#010101"/>
</linearGradient>
<linearGradient id="paint14_linear_108_1327" x1="908.472" y1="709.354" x2="927.688" y2="131.435" gradientUnits="userSpaceOnUse">
<stop stop-color="#010101" stop-opacity="0.01"/>
<stop offset="0.95" stop-color="#010101"/>
</linearGradient>
<linearGradient id="paint15_linear_108_1327" x1="907.62" y1="709.694" x2="926.836" y2="131.776" gradientUnits="userSpaceOnUse">
<stop stop-color="#010101" stop-opacity="0.01"/>
<stop offset="0.95" stop-color="#010101"/>
</linearGradient>
<linearGradient id="paint16_linear_108_1327" x1="1001.71" y1="713.545" x2="1020.93" y2="135.627" gradientUnits="userSpaceOnUse">
<stop stop-color="#010101" stop-opacity="0.01"/>
<stop offset="0.95" stop-color="#010101"/>
</linearGradient>
<linearGradient id="paint17_linear_108_1327" x1="907.682" y1="711.236" x2="926.87" y2="133.317" gradientUnits="userSpaceOnUse">
<stop stop-color="#010101" stop-opacity="0.01"/>
<stop offset="0.95" stop-color="#010101"/>
</linearGradient>
<linearGradient id="paint18_linear_108_1327" x1="955.672" y1="712.396" x2="974.888" y2="134.499" gradientUnits="userSpaceOnUse">
<stop stop-color="#010101" stop-opacity="0.01"/>
<stop offset="0.95" stop-color="#010101"/>
</linearGradient>
<linearGradient id="paint19_linear_108_1327" x1="957.488" y1="709.843" x2="976.704" y2="131.925" gradientUnits="userSpaceOnUse">
<stop stop-color="#010101" stop-opacity="0.01"/>
<stop offset="0.95" stop-color="#010101"/>
</linearGradient>
<linearGradient id="paint20_linear_108_1327" x1="612.41" y1="724.399" x2="844.643" y2="941.094" gradientUnits="userSpaceOnUse">
<stop stop-color="white" stop-opacity="0.01"/>
<stop offset="0.07" stop-color="white" stop-opacity="0.22"/>
<stop offset="0.16" stop-color="white" stop-opacity="0.45"/>
<stop offset="0.25" stop-color="white" stop-opacity="0.65"/>
<stop offset="0.33" stop-color="white" stop-opacity="0.8"/>
<stop offset="0.4" stop-color="white" stop-opacity="0.91"/>
<stop offset="0.46" stop-color="white" stop-opacity="0.98"/>
<stop offset="0.51" stop-color="white"/>
</linearGradient>
<linearGradient id="paint21_linear_108_1327" x1="961.277" y1="504.864" x2="959.492" y2="640.026" gradientUnits="userSpaceOnUse">
<stop stop-color="white" stop-opacity="0.01"/>
<stop offset="0.07" stop-color="white" stop-opacity="0.22"/>
<stop offset="0.16" stop-color="white" stop-opacity="0.45"/>
<stop offset="0.25" stop-color="white" stop-opacity="0.65"/>
<stop offset="0.33" stop-color="white" stop-opacity="0.8"/>
<stop offset="0.4" stop-color="white" stop-opacity="0.91"/>
<stop offset="0.46" stop-color="white" stop-opacity="0.98"/>
<stop offset="0.51" stop-color="white"/>
</linearGradient>
<linearGradient id="paint22_linear_108_1327" x1="961.277" y1="614.864" x2="959.492" y2="750.026" gradientUnits="userSpaceOnUse">
<stop stop-color="white" stop-opacity="0.01"/>
<stop offset="0.07" stop-color="white" stop-opacity="0.22"/>
<stop offset="0.16" stop-color="white" stop-opacity="0.45"/>
<stop offset="0.25" stop-color="white" stop-opacity="0.65"/>
<stop offset="0.33" stop-color="white" stop-opacity="0.8"/>
<stop offset="0.4" stop-color="white" stop-opacity="0.91"/>
<stop offset="0.46" stop-color="white" stop-opacity="0.98"/>
<stop offset="0.51" stop-color="white"/>
</linearGradient>
<linearGradient id="paint23_linear_108_1327" x1="597.437" y1="540.281" x2="597.42" y2="558.481" gradientUnits="userSpaceOnUse">
<stop stop-color="white" stop-opacity="0.01"/>
<stop offset="0.07" stop-color="white" stop-opacity="0.22"/>
<stop offset="0.16" stop-color="white" stop-opacity="0.45"/>
<stop offset="0.25" stop-color="white" stop-opacity="0.65"/>
<stop offset="0.33" stop-color="white" stop-opacity="0.8"/>
<stop offset="0.4" stop-color="white" stop-opacity="0.91"/>
<stop offset="0.46" stop-color="white" stop-opacity="0.98"/>
<stop offset="0.51" stop-color="white"/>
</linearGradient>
<linearGradient id="paint24_linear_108_1327" x1="516.737" y1="593.052" x2="630.168" y2="503.635" gradientUnits="userSpaceOnUse">
<stop stop-color="#010101" stop-opacity="0.01"/>
<stop offset="0.95" stop-color="#010101"/>
</linearGradient>
<linearGradient id="paint25_linear_108_1327" x1="566.575" y1="612.988" x2="727.852" y2="487.867" gradientUnits="userSpaceOnUse">
<stop stop-color="#010101" stop-opacity="0.01"/>
<stop offset="0.95" stop-color="#010101"/>
</linearGradient>
<linearGradient id="paint26_linear_108_1327" x1="671.519" y1="671.751" x2="927.684" y2="449.028" gradientUnits="userSpaceOnUse">
<stop stop-color="#010101" stop-opacity="0.01"/>
<stop offset="0.95" stop-color="#010101"/>
</linearGradient>
<linearGradient id="paint27_linear_108_1327" x1="780.279" y1="740.865" x2="1155.96" y2="422.45" gradientUnits="userSpaceOnUse">
<stop stop-color="#010101" stop-opacity="0.01"/>
<stop offset="0.36" stop-color="#010101" stop-opacity="0.36"/>
<stop offset="0.95" stop-color="#010101"/>
</linearGradient>
<linearGradient id="paint28_linear_108_1327" x1="628.537" y1="503.751" x2="811.477" y2="372.322" gradientUnits="userSpaceOnUse">
<stop stop-color="white" stop-opacity="0.01"/>
<stop offset="0.07" stop-color="white" stop-opacity="0.22"/>
<stop offset="0.16" stop-color="white" stop-opacity="0.45"/>
<stop offset="0.25" stop-color="white" stop-opacity="0.65"/>
<stop offset="0.33" stop-color="white" stop-opacity="0.8"/>
<stop offset="0.4" stop-color="white" stop-opacity="0.91"/>
<stop offset="0.46" stop-color="white" stop-opacity="0.98"/>
<stop offset="0.51" stop-color="white"/>
</linearGradient>
<linearGradient id="paint29_linear_108_1327" x1="642.151" y1="501.517" x2="758.009" y2="405.658" gradientUnits="userSpaceOnUse">
<stop stop-color="white" stop-opacity="0.01"/>
<stop offset="0.07" stop-color="white" stop-opacity="0.22"/>
<stop offset="0.16" stop-color="white" stop-opacity="0.45"/>
<stop offset="0.25" stop-color="white" stop-opacity="0.65"/>
<stop offset="0.33" stop-color="white" stop-opacity="0.8"/>
<stop offset="0.4" stop-color="white" stop-opacity="0.91"/>
<stop offset="0.46" stop-color="white" stop-opacity="0.98"/>
<stop offset="0.51" stop-color="white"/>
</linearGradient>
<linearGradient id="paint30_linear_108_1327" x1="507.738" y1="667.745" x2="545.923" y2="667.767" gradientUnits="userSpaceOnUse">
<stop stop-color="white" stop-opacity="0.01"/>
<stop offset="0.07" stop-color="white" stop-opacity="0.22"/>
<stop offset="0.16" stop-color="white" stop-opacity="0.45"/>
<stop offset="0.25" stop-color="white" stop-opacity="0.65"/>
<stop offset="0.33" stop-color="white" stop-opacity="0.8"/>
<stop offset="0.4" stop-color="white" stop-opacity="0.91"/>
<stop offset="0.46" stop-color="white" stop-opacity="0.98"/>
<stop offset="0.51" stop-color="white"/>
</linearGradient>
<linearGradient id="paint31_linear_108_1327" x1="434.446" y1="570.2" x2="446.097" y2="608.932" gradientUnits="userSpaceOnUse">
<stop stop-color="#010101" stop-opacity="0.01"/>
<stop offset="0.95" stop-color="#010101"/>
</linearGradient>
<linearGradient id="paint32_linear_108_1327" x1="459.244" y1="718.933" x2="560.146" y2="720.976" gradientUnits="userSpaceOnUse">
<stop stop-color="#010101" stop-opacity="0.01"/>
<stop offset="0.95" stop-color="#010101"/>
</linearGradient>
<linearGradient id="paint33_linear_108_1327" x1="862.015" y1="876.512" x2="765.922" y2="711.732" gradientUnits="userSpaceOnUse">
<stop stop-color="#010101" stop-opacity="0.01"/>
<stop offset="0.95" stop-color="#010101"/>
</linearGradient>
<linearGradient id="paint34_linear_108_1327" x1="863.037" y1="414.892" x2="690.151" y2="419.761" gradientUnits="userSpaceOnUse">
<stop stop-color="#010101" stop-opacity="0.01"/>
<stop offset="0.95" stop-color="#010101"/>
</linearGradient>
</defs>
</svg>
